<?xml version="1.0" encoding="utf-8"?>
<!-- Generator: Adobe Illustrator 23.0.4, SVG Export Plug-In . SVG Version: 6.00 Build 0)  -->
<svg version="1.1" id="Слой_1" xmlns="http://www.w3.org/2000/svg" xmlns:xlink="http://www.w3.org/1999/xlink" x="0px" y="0px"
	 viewBox="0 0 219.5 219.5" style="enable-background:new 0 0 219.5 219.5;" xml:space="preserve">
<style type="text/css">
	.st0{fill:#FFFFFF;}
</style>
<path class="st0" d="M174.1,0H45.4C20.3,0,0,20.3,0,45.4v128.7c0,25.1,20.3,45.4,45.4,45.4h128.7c25.1,0,45.4-20.3,45.4-45.4V45.4
	C219.5,20.3,199.2,0,174.1,0z M144.2,53.3c13,0,23.6,10.6,23.6,23.6s-10.6,23.6-23.6,23.6s-23.6-10.6-23.6-23.6
	S131.2,53.3,144.2,53.3z M77.2,53.3c13,0,23.6,10.6,23.6,23.6s-10.6,23.6-23.6,23.6S53.6,89.9,53.6,76.9S64.2,53.3,77.2,53.3z
	 M18.4,165.1c0-25.5,26.3-46.1,58.8-46.1c32.5,0,58.8,20.6,58.8,46.1H18.4z M162.8,165.1c0-19.9-16.1-36.8-38.7-43.3
	c6.3-1.8,13-2.8,20.1-2.8c32.5,0,58.8,20.6,58.8,46.1H162.8z"/>
</svg>
