<?xml version="1.0" encoding="utf-8"?>
<!-- Generator: Adobe Illustrator 23.0.4, SVG Export Plug-In . SVG Version: 6.00 Build 0)  -->
<svg version="1.1" id="Capa_1" xmlns="http://www.w3.org/2000/svg" xmlns:xlink="http://www.w3.org/1999/xlink" x="0px" y="0px"
	 viewBox="0 0 30 26" style="enable-background:new 0 0 30 26;" xml:space="preserve">
<style type="text/css">
	.st0{fill:#241D39;}
</style>
<g>
	<path class="st0" d="M29.8,3.3l-3-3c-0.3-0.3-0.9-0.3-1.2,0L12.8,13c-0.3,0.3-0.3,0.9,0,1.2l3,3c0.3,0.3,0.9,0.3,1.2,0L29.8,4.5
		C30.1,4.1,30.1,3.6,29.8,3.3z"/>
	<path class="st0" d="M8.9,16.5c-2.4,0-4.3,1.9-4.3,4.3c0,0,0,0.1,0,0.1C4.7,21.5,4.8,25.3,0,25c0,0,6.7,2.5,11-0.6c0,0,0,0,0,0
		c1.2-0.8,2-2.1,2-3.6C13.1,18.4,11.2,16.5,8.9,16.5z"/>
</g>
</svg>
