<?xml version="1.0" encoding="utf-8"?>
<!-- Generator: Adobe Illustrator 23.0.4, SVG Export Plug-In . SVG Version: 6.00 Build 0)  -->
<svg version="1.1" id="Слой_1" xmlns="http://www.w3.org/2000/svg" xmlns:xlink="http://www.w3.org/1999/xlink" x="0px" y="0px"
	 viewBox="0 0 1536 1536" style="enable-background:new 0 0 1536 1536;" xml:space="preserve">
<style type="text/css">
	.st0{fill:#241D39;}
</style>
<path class="st0" d="M1280,832V704c0-17.3-6.3-32.3-19-45s-27.7-19-45-19H714l189-189c12.7-12.7,19-27.7,19-45s-6.3-32.3-19-45
	l-91-91c-12-12-27-18-45-18s-33,6-45,18L360,632l-91,91c-12,12-18,27-18,45s6,33,18,45l91,91l362,362c12,12,27,18,45,18s33-6,45-18
	l91-91c12-12,18-27,18-45s-6-33-18-45L714,896h502c17.3,0,32.3-6.3,45-19S1280,849.3,1280,832z M1536,768
	c0,139.3-34.3,267.8-103,385.5s-161.8,210.8-279.5,279.5S907.3,1536,768,1536s-267.8-34.3-385.5-103S171.7,1271.2,103,1153.5
	S0,907.3,0,768s34.3-267.8,103-385.5S264.8,171.7,382.5,103S628.7,0,768,0s267.8,34.3,385.5,103s210.8,161.8,279.5,279.5
	S1536,628.7,1536,768z"/>
</svg>
