<?xml version="1.0" encoding="utf-8"?>
<!-- Generator: Adobe Illustrator 23.0.4, SVG Export Plug-In . SVG Version: 6.00 Build 0)  -->
<svg version="1.1" id="Capa_1" xmlns="http://www.w3.org/2000/svg" xmlns:xlink="http://www.w3.org/1999/xlink" x="0px" y="0px"
	 viewBox="0 0 336.4 362.6" style="enable-background:new 0 0 336.4 362.6;" xml:space="preserve">
<style type="text/css">
	.st0{fill:#000001;}
</style>
<path class="st0" d="M275.6,121.5c33.5,0,60.7-27.3,60.7-60.7S309.1,0,275.6,0s-60.7,27.2-60.7,60.7c0,6.3,1,12.4,2.8,18.1
	L91.5,155.8c-9.7-8.3-22.3-13.4-36.1-13.4C24.9,142.4,0,167.3,0,197.9s24.9,55.5,55.5,55.5c10.9,0,21-3.2,29.6-8.6L186.8,303
	c-0.6,3.1-0.9,6.2-0.9,9.4c0,27.7,22.5,50.2,50.2,50.2c27.7,0,50.2-22.5,50.2-50.2s-22.5-50.2-50.2-50.2c-13.6,0-26,5.5-35.1,14.3
	l-95.5-54.7c3.5-7.3,5.5-15.4,5.5-24c0-6-1-11.8-2.7-17.2l125.2-76.4C244.4,115,259.2,121.5,275.6,121.5z"/>
</svg>
