<?xml version="1.0" encoding="utf-8"?>
<!-- Generator: Adobe Illustrator 23.0.4, SVG Export Plug-In . SVG Version: 6.00 Build 0)  -->
<svg version="1.1" id="Слой_1" xmlns="http://www.w3.org/2000/svg" xmlns:xlink="http://www.w3.org/1999/xlink" x="0px" y="0px"
	 viewBox="0 0 144.9 219.5" style="enable-background:new 0 0 144.9 219.5;" xml:space="preserve">
<style type="text/css">
	.st0{fill:#010101;}
</style>
<path class="st0" d="M144.9,72.4c0-40-32.4-72.4-72.4-72.4C32.4,0,0,32.4,0,72.4c0,11.9,2.9,23,8,32.9H7.9l0.5,1
	c0.2,0.4,0.5,0.8,0.7,1.3l61.1,111.9h2.2l62.5-110.6c0.6-1,1.2-2,1.7-3l0.3-0.6h-0.1C141.9,95.5,144.9,84.3,144.9,72.4z M72.4,96.3
	c-13.2,0-23.9-10.7-23.9-23.9s10.7-23.9,23.9-23.9c13.2,0,23.9,10.7,23.9,23.9S85.6,96.3,72.4,96.3z"/>
</svg>
