<?xml version="1.0" encoding="utf-8"?>
<!-- Generator: Adobe Illustrator 23.0.4, SVG Export Plug-In . SVG Version: 6.00 Build 0)  -->
<svg version="1.1" id="Capa_1" xmlns="http://www.w3.org/2000/svg" xmlns:xlink="http://www.w3.org/1999/xlink" x="0px" y="0px"
	 viewBox="0 0 30 29.2" style="enable-background:new 0 0 30 29.2;" xml:space="preserve">
<style type="text/css">
	.st0{fill:#787878;}
</style>
<path class="st0" d="M30,27.1l-9.6-9.6c1.3-1.8,2-4,2-6.4C22.4,5,17.4,0,11.2,0C5,0,0,5,0,11.2s5,11.2,11.2,11.2
	c2.7,0,5.2-1,7.2-2.6l9.5,9.5L30,27.1z M11.2,19.7c-4.7,0-8.5-3.8-8.5-8.5s3.8-8.5,8.5-8.5c4.7,0,8.5,3.8,8.5,8.5
	S15.9,19.7,11.2,19.7z"/>
</svg>
